Witchville (2010) 1080p MKV x264 AC3+DTS-7.1-8ch NL Subs
.
[IMG]http://img267.imageshack.us/img267/3060/wv2010.jpg[/IMG]
.
Verenigde Staten
Sciencefiction / Fantasy

geregisseerd door Pearry Reginald Teo
met Luke Goss, Ed Speleers en Andrew Pleavin

Malachy keert terug naar zijn geboortedorpje om de kroon van zijn reeds gestorven vader over te nemen. Er wordt hem verteld dat verschillende heksen het dorpje langzaam uitroeien en al snel raakt hij met hen in gevecht. Zal hij het dorpje kunnen redden?
. 
http://www.moviemeter.nl/film/66821
.
PLOT
.
In the Middle Ages, Erik and Jason seek out his compatriot Malachy and force him to return to his homeland...
. 
http://www.imdb.com/title/tt1506458/
.
INFO
.
Format                           : Matroska
Format version                   : Version 2
File size                        : 8.19 GiB
Duration                         : 1h 29mn
Overall bit rate mode            : Variable
Overall bit rate                 : 13.1 Mbps
Encoded date                     : UTC 2012-01-17 18:50:15
Writing application              : mkvmerge v5.2.0 ('I can't explain') built on Dec 18 2011 18:12:03
Writing library                  : libebml v1.2.3 + libmatroska v1.3.0

Video
ID                               : 1
Format                           : AVC
Format/Info                      : Advanced Video Codec
Format profile                   : High@L4.1
Format settings, CABAC           : Yes
Format settings, ReFrames        : 4 frames
Codec ID                         : V_MPEG4/ISO/AVC
Duration                         : 1h 29mn
Bit rate                         : 11.3 Mbps
Nominal bit rate                 : 10.1 Mbps
Width                            : 1 920 pixels
Height                           : 1 080 pixels
Display aspect ratio             : 16:9
Frame rate                       : 23.976 fps
Color space                      : YUV
Chroma subsampling               : 4:2:0
Bit depth                        : 8 bits
Scan type                        : Progressive
Bits/(Pixel*Frame)               : 0.228
Stream size                      : 7.10 GiB (87%)
Writing library                  : x264 core 116 r2057 0ba8a9c
Encoding settings                : cabac=1 / ref=4 / deblock=1:0:0 / analyse=0x3:0x133 / me=umh / subme=7 / psy=1 / psy_rd=1.00:0.00 / mixed_ref=1 / me_range=16 / chroma_me=1 / trellis=1 / 8x8dct=1 / cqm=0 / deadzone=21,11 / fast_pskip=0 / chroma_qp_offset=-2 / threads=12 / sliced_threads=0 / nr=0 / decimate=1 / interlaced=0 / bluray_compat=0 / constrained_intra=0 / bframes=3 / b_pyramid=2 / b_adapt=1 / b_bias=0 / direct=1 / weightb=1 / open_gop=0 / weightp=1 / keyint=250 / keyint_min=23 / scenecut=40 / intra_refresh=0 / rc_lookahead=40 / rc=2pass / mbtree=1 / bitrate=10110 / ratetol=1.0 / qcomp=0.60 / qpmin=0 / qpmax=69 / qpstep=4 / cplxblur=20.0 / qblur=0.5 / ip_ratio=1.40 / aq=1:1.00
Language                         : English
Default                          : No
Forced                           : No

Audio #1
ID                               : 2
Format                           : DTS
Format/Info                      : Digital Theater Systems
Format profile                   : MA / Core
Codec ID                         : A_DTS
Duration                         : 1h 29mn
Bit rate mode                    : Variable
Bit rate                         : 842 Kbps / 755 Kbps
Channel(s)                       : 8 channels / 6 channels
Channel positions                : Front: L C R, Side: L R, Back: L R, LFE / Front: L C R, Side: L R, LFE
Sampling rate                    : 48.0 KHz
Bit depth                        : 16 bits
Compression mode                 : Lossless / Lossy
Title                            : DTS
Language                         : English
Default                          : No
Forced                           : Yes

Audio #2
ID                               : 3
Format                           : AC-3
Format/Info                      : Audio Coding 3
Mode extension                   : CM (complete main)
Codec ID                         : A_AC3
Duration                         : 1h 29mn
Bit rate mode                    : Constant
Bit rate                         : 640 Kbps
Channel(s)                       : 6 channels
Channel positions                : Front: L C R, Side: L R, LFE
Sampling rate                    : 48.0 KHz
Bit depth                        : 16 bits
Compression mode                 : Lossy
Stream size                      : 411 MiB (5%)
Title                            : AC3
Language                         : English
Default                          : Yes
Forced                           : No

Text
ID                               : 4
Format                           : UTF-8
Codec ID                         : S_TEXT/UTF8
Codec ID/Info                    : UTF-8 Plain Text
Default                          : Yes
Forced                           : No
.
Enjoy
